<svg width="966" height="194" viewBox="0 0 966 194" fill="none" xmlns="http://www.w3.org/2000/svg">
<path d="M135.834 157.105H160.312V190.346H125.723C105.502 190.346 96.4558 182.102 95.1255 162.158H87.6756L74.1061 190.346C66.3901 192.208 59.7384 193.005 51.4903 193.005C22.2227 193.005 5.72652 178.911 5.72652 154.18C5.72652 129.449 17.9657 118.014 45.9028 115.089L87.6756 110.834C91.1345 110.568 92.4648 109.238 92.4648 106.313C92.4648 93.0165 82.6203 85.5705 65.5919 85.5705C48.5635 85.5705 39.5172 91.9528 37.6547 109.238H0.405151C3.3319 73.8697 25.6816 53.6592 66.9222 53.6592C108.163 53.6592 131.045 75.4653 131.045 115.089V152.584C131.045 155.776 132.641 157.105 135.834 157.105ZM61.8669 160.828C82.6203 160.828 91.6666 151.255 92.4648 127.587L61.8669 131.842C48.5635 133.703 42.9761 138.224 42.9761 147.266C42.9761 155.51 50.426 160.828 61.8669 160.828Z" fill="#B55694"/>
<path d="M277.145 92.4843H216.268C198.442 92.4843 190.992 102.058 190.992 124.396V190.346H152.412V56.3181H188.331V87.1658H195.781L210.681 56.3181L231.966 56.3185C236.223 56.3185 277.145 56.3181 277.145 56.3181L277.145 92.4843Z" fill="#B55694"/>
<path d="M314.33 156.839H334.019V190.346H310.339C274.42 190.346 254.465 173.061 254.465 137.16V89.8252H230.518V56.3183H254.465V19.0884H293.045V53.9648H334.019V92.4845H293.045V135.831C293.045 149.925 300.228 156.839 314.33 156.839Z" fill="#B55694"/>
<path d="M446.034 0.473389C498.715 0.473389 531.176 29.9914 533.836 80.7836H492.596C490.201 52.0634 473.705 36.3737 446.034 36.3737C414.106 36.3737 396.545 57.9138 396.545 96.7393C396.545 135.565 414.106 157.105 446.034 157.105C475.035 157.105 490.999 141.947 495.256 110.036H536.497C533.57 160.562 498.183 193.005 446.034 193.005C388.297 193.005 355.304 158.169 355.304 96.7393C355.304 35.31 388.297 0.473389 446.034 0.473389Z" fill="#23AECD"/>
<path d="M611.251 53.6592C654.354 53.6592 678.567 78.6564 678.567 123.332C678.567 168.008 654.088 193.005 611.251 193.005C568.414 193.005 543.936 168.008 543.936 123.332C543.936 78.6564 568.414 53.6592 611.251 53.6592ZM611.251 159.499C630.408 159.499 641.317 146.468 641.317 123.332C641.317 100.197 630.408 87.1661 611.251 87.1661C592.094 87.1661 581.186 100.197 581.186 123.332C581.186 146.468 592.094 159.499 611.251 159.499Z" fill="#23AECD"/>
<path d="M753.304 193.005C713.66 193.005 690.246 167.21 690.246 123.332C690.246 79.4539 713.66 53.6589 753.304 53.6589C766.075 53.6589 776.452 56.3182 786.03 61.9026V3.13257H824.61V190.346H788.691V162.157H781.241L766.873 191.941C762.084 192.739 758.625 193.005 753.304 193.005ZM788.691 123.332C788.691 100.196 777.516 87.1658 758.093 87.1658C738.67 87.1658 727.495 100.196 727.495 123.332C727.495 146.468 738.404 159.498 758.093 159.498C777.782 159.498 788.691 146.468 788.691 123.332Z" fill="#23AECD"/>
<path d="M870.358 129.183C871.955 149.393 883.13 160.828 901.488 160.828C917.186 160.828 925.434 154.18 928.361 138.49H965.877C963.216 173.061 939.536 193.005 901.488 193.005C858.385 193.005 834.173 167.742 834.173 123.332C834.173 78.9223 858.385 53.6592 900.158 53.6592C941.931 53.6592 963.216 79.4542 963.216 123.332C963.216 127.321 961.62 129.183 958.427 129.183H870.358ZM871.157 111.366L919.847 110.568C923.04 110.568 924.636 109.238 924.636 106.047C924.636 93.8143 915.058 85.8365 900.158 85.8365C885.258 85.8365 874.615 95.4099 871.157 111.366Z" fill="#23AECD"/>
</svg>
